<svg width="3000" height="609" viewBox="0 0 3000 609" fill="none" xmlns="http://www.w3.org/2000/svg">
<path d="M2734.04 521.152C2697.66 521.152 2663.33 514.491 2631.04 501.167C2599.27 487.844 2571.34 469.652 2547.26 446.592C2523.17 423.02 2504.21 395.604 2490.38 364.345C2476.54 332.574 2469.62 298.241 2469.62 261.345C2469.62 224.962 2476.54 190.884 2490.38 159.113C2504.73 127.342 2523.69 99.926 2547.26 76.8662C2571.34 53.2939 2599.27 34.846 2631.04 21.5225C2663.33 7.68663 2697.66 0.768677 2734.04 0.768677C2770.43 0.768677 2804.5 7.43041 2836.28 20.7539C2868.56 34.0773 2896.74 52.5252 2920.83 76.0975C2945.42 99.6697 2964.64 127.342 2978.48 159.113C2992.83 190.884 3000 224.962 3000 261.345C3000 298.241 2992.83 332.574 2978.48 364.345C2964.64 395.604 2945.68 423.02 2921.6 446.592C2897.51 469.652 2869.33 487.844 2837.04 501.167C2804.76 514.491 2770.43 521.152 2734.04 521.152ZM2734.04 80.7095C2708.93 80.7095 2685.62 85.5776 2664.1 95.314C2642.57 104.538 2623.61 117.349 2607.21 133.747C2591.33 150.145 2578.77 169.362 2569.55 191.397C2560.33 212.919 2555.71 236.235 2555.71 261.345C2555.71 286.454 2560.33 310.027 2569.55 332.062C2578.77 354.097 2591.33 373.313 2607.21 389.711C2623.1 405.597 2641.8 418.408 2663.33 428.144C2685.36 437.368 2708.93 441.98 2734.04 441.98C2759.15 441.98 2782.73 437.368 2804.76 428.144C2826.79 418.408 2845.76 405.597 2861.64 389.711C2877.53 373.313 2890.08 354.097 2899.31 332.062C2908.53 310.027 2913.14 286.454 2913.14 261.345C2913.14 236.235 2908.53 212.919 2899.31 191.397C2890.08 169.362 2877.27 150.145 2860.87 133.747C2844.99 117.349 2826.03 104.538 2803.99 95.314C2782.47 85.5776 2759.15 80.7095 2734.04 80.7095Z" fill="white"/>
<path d="M2128.85 608.011V518.078L2115.79 516.54C2065.06 507.829 2020.47 484.257 1982.04 445.823V445.055C1929.77 395.86 1903.64 334.88 1903.64 262.113C1903.64 225.73 1910.56 191.653 1924.39 159.882C1938.74 128.11 1957.7 100.695 1981.27 77.6348C2005.36 54.0625 2033.54 35.6146 2065.82 22.2912C2098.11 8.45525 2132.19 1.53729 2168.06 1.53729C2204.44 1.53729 2238.77 8.19903 2271.06 21.5225C2303.34 34.846 2331.53 53.2938 2355.61 76.8661C2379.69 100.438 2398.65 128.11 2412.49 159.882C2426.84 191.14 2434.01 225.218 2434.01 262.113C2434.01 334.88 2407.88 395.86 2355.61 445.055C2316.66 484 2271.83 507.829 2221.09 516.54L2208.8 518.846V608.011H2128.85ZM2168.06 80.7094C2142.95 80.7094 2119.37 85.5776 2097.34 95.314C2075.82 104.538 2057.11 117.605 2041.23 134.516C2025.34 150.914 2012.79 170.13 2003.56 192.165C1994.34 213.688 1989.73 237.004 1989.73 262.113C1989.73 287.223 1994.34 310.795 2003.56 332.83C2012.79 354.353 2025.34 373.313 2041.23 389.711C2057.11 406.109 2075.82 418.92 2097.34 428.144C2119.37 437.368 2142.95 441.98 2168.06 441.98C2193.17 441.98 2216.74 437.368 2238.77 428.144C2260.81 418.92 2279.77 406.366 2295.65 390.48C2312.05 374.082 2324.86 354.865 2334.09 332.83C2343.31 310.795 2347.92 287.223 2347.92 262.113C2347.92 237.004 2343.31 213.432 2334.09 191.397C2324.86 169.362 2312.05 150.145 2295.65 133.747C2279.77 117.349 2260.81 104.538 2238.77 95.314C2216.74 85.5776 2193.17 80.7094 2168.06 80.7094Z" fill="white"/>
<path d="M1764.02 521.152V1.53729H1856.26V521.152H1764.02Z" fill="white"/>
<path d="M1402.21 521.152V259.039C1402.21 222.143 1409.12 188.066 1422.96 156.807C1437.31 125.036 1456.52 97.62 1480.61 74.5601C1505.21 51.5003 1533.65 33.3086 1565.93 19.9852C1598.21 6.66173 1632.29 0 1668.16 0H1728.89V81.4781H1669.7C1645.1 81.4781 1621.79 86.09 1599.75 95.314C1578.23 104.538 1559.27 117.349 1542.87 133.747C1526.99 149.633 1514.17 168.593 1504.44 190.628C1495.21 212.15 1490.6 235.21 1490.6 259.807V521.152H1402.21Z" fill="white"/>
<path d="M1260.44 521.152V441.211C1237.89 468.371 1209.7 488.612 1175.88 501.936C1142.06 514.747 1107.98 521.152 1073.65 521.152C1037.78 521.152 1003.7 514.49 971.419 501.167C939.136 487.844 910.695 469.396 886.098 445.823C862.013 422.251 842.797 394.836 828.448 363.577C814.613 331.805 807.695 297.728 807.695 261.345C807.695 224.962 814.613 190.884 828.448 159.113C842.797 127.341 862.013 99.6697 886.098 76.0974C910.695 52.5252 938.879 34.0773 970.651 20.7538C1002.93 6.91794 1037.27 0 1073.65 0C1110.03 0 1144.11 6.91794 1175.88 20.7538C1207.65 34.0773 1235.58 52.5252 1259.67 76.0974C1283.75 99.6697 1302.71 127.341 1316.55 159.113C1330.38 190.884 1337.3 224.962 1337.3 261.345V521.152H1260.44ZM1073.65 79.1721C1048.54 79.1721 1025.23 84.0403 1003.7 93.7766C982.181 103.513 963.22 116.837 946.822 133.747C930.424 150.145 917.613 169.362 908.389 191.397C899.165 213.432 894.553 236.748 894.553 261.345C894.553 286.454 899.165 310.027 908.389 332.062C917.613 353.584 930.168 372.544 946.054 388.943C962.452 405.341 981.412 418.408 1002.93 428.144C1024.97 437.368 1048.54 441.98 1073.65 441.98C1098.76 441.98 1122.08 437.368 1143.6 428.144C1165.63 418.408 1184.59 405.341 1200.48 388.943C1216.37 372.544 1228.92 353.328 1238.14 331.293C1247.37 309.258 1251.98 285.942 1251.98 261.345C1251.98 236.235 1247.37 212.663 1238.14 190.628C1228.92 168.593 1216.37 149.376 1200.48 132.978C1184.59 116.58 1165.63 103.513 1143.6 93.7766C1122.08 84.0403 1098.76 79.1721 1073.65 79.1721Z" fill="white"/>
<path d="M764.421 521.152C728.038 521.152 693.705 514.747 661.421 501.936C629.137 488.612 600.697 470.421 576.099 447.361C552.015 424.301 532.798 397.142 518.45 365.883C504.102 334.111 496.927 299.778 496.927 262.882V1.53729H583.786V262.113C583.786 287.223 588.398 310.795 597.622 332.83C607.358 354.353 620.426 373.313 636.824 389.711C653.222 405.597 672.438 418.408 694.473 428.144C716.508 437.368 739.824 441.98 764.421 441.98H806.698V521.152H764.421Z" fill="white"/>
<path d="M383.562 521.152V463.503C383.562 438.906 378.95 416.102 369.726 395.092C361.014 373.569 348.716 354.865 332.83 338.98C317.457 323.094 299.009 310.795 277.487 302.084C256.477 292.86 233.673 288.248 209.076 288.248H93.008V521.152H0V1.53729H93.008V203.695H190.628L327.45 1.53729H433.525L289.785 215.225L304.39 220.606C330.012 230.855 353.328 244.178 374.338 260.576C395.348 276.974 413.283 295.678 428.144 316.688C443.005 337.186 454.279 359.99 461.965 385.099C470.164 409.696 474.264 435.831 474.264 463.503V521.152H383.562Z" fill="white"/>
</svg>
